<?xml version="1.0" encoding="utf-8"?>
<!-- Generator: Adobe Illustrator 23.0.2, SVG Export Plug-In . SVG Version: 6.00 Build 0)  -->
<svg version="1.1" id="Layer_2" xmlns="http://www.w3.org/2000/svg" xmlns:xlink="http://www.w3.org/1999/xlink" x="0px" y="0px"
	 viewBox="0 0 28 22" style="enable-background:new 0 0 28 22;" xml:space="preserve">
<style type="text/css">
	.st0{fill:#FFFFFF;}
</style>
<path class="st0" d="M25.9,0.8c0.1-0.2,0.3-0.2,0.5-0.2s0.4,0.1,0.5,0.2l0.7,0.7c0.1,0.2,0.2,0.4,0.2,0.6c0,0.2-0.1,0.4-0.2,0.5
	L8.9,21.2c-0.2,0.2-0.3,0.2-0.5,0.2c-0.2,0-0.4-0.1-0.5-0.2l-7.4-7.4c-0.1-0.1-0.2-0.3-0.2-0.5s0.1-0.4,0.2-0.6l0.7-0.7
	c0.1-0.2,0.3-0.2,0.5-0.2s0.4,0.1,0.5,0.2l6.2,6.2L25.9,0.8z"/>
</svg>
