<?xml version="1.0" encoding="utf-8"?>
<!-- Generator: Adobe Illustrator 23.0.2, SVG Export Plug-In . SVG Version: 6.00 Build 0)  -->
<svg version="1.1" id="Layer_1" xmlns="http://www.w3.org/2000/svg" xmlns:xlink="http://www.w3.org/1999/xlink" x="0px" y="0px"
	 viewBox="0 0 88 88" style="enable-background:new 0 0 88 88;" xml:space="preserve">
<style type="text/css">
	.st0{fill:#EAAB21;}
	.st1{fill:#FFFFFF;}
</style>
<g>
	<polyline class="st0" points="0,88 0,0 88,0 	"/>
</g>
<g id="Home">
	<g id="WC01--Homepage-Desktop-Discover-R3" transform="translate(-211.000000, -1343.000000)">
		<g id="Top">
			<g id="Mad-Lib" transform="translate(140.000000, 976.000000)">
				<g id="expanded-content" transform="translate(59.000000, 355.000000)">
					<g id="close-circular-button" transform="translate(12.000000, 12.000000)">
						<g>
							<path id="Shape" class="st1" d="M26,11c-7.2,0-13,5.8-13,13s5.8,13,13,13s13-5.8,13-13S33.2,11,26,11z M26,34.6
								c-5.9,0-10.7-4.8-10.7-10.7S20.1,13.2,26,13.2S36.8,18,36.8,23.9S32,34.6,26,34.6z M30.3,20.7l-0.4-0.4
								c-0.3-0.3-0.8-0.3-1.2,0l-2.4,2.4l-2.4-2.4c-0.3-0.3-0.8-0.3-1.2,0l-0.4,0.4c-0.3,0.3-0.3,0.8,0,1.2l2.4,2.4l-2.4,2.4
								c-0.3,0.3-0.3,0.8,0,1.2l0.4,0.4c0.3,0.3,0.8,0.3,1.2,0l2.4-2.4l2.4,2.4c0.3,0.3,0.8,0.3,1.2,0l0.4-0.4
								c0.3-0.3,0.3-0.8,0-1.2l-2.4-2.4l2.4-2.4C30.6,21.6,30.6,21,30.3,20.7z"/>
						</g>
					</g>
				</g>
			</g>
		</g>
	</g>
</g>
</svg>
