<?xml version="1.0" encoding="utf-8"?>
<!-- Generator: Adobe Illustrator 23.0.2, SVG Export Plug-In . SVG Version: 6.00 Build 0)  -->
<svg version="1.1" id="footer-logo" xmlns="http://www.w3.org/2000/svg" xmlns:xlink="http://www.w3.org/1999/xlink" x="0px"
	 y="0px" viewBox="0 0 336 87" style="enable-background:new 0 0 336 87;" xml:space="preserve">
<style type="text/css">
	.st0{fill-rule:evenodd;clip-rule:evenodd;fill:#FFFFFF;}
	.st1{fill:#FFFFFF;}
</style>
<g>
	<rect id="Rectangle" y="62" class="st0" width="336" height="1.2"/>
	<path id="Path" class="st0" d="M27,77c-0.7,0.2-0.9,0.5-1.5,1.7c-1.2,2.6-2.2,4.7-3,6.8c-0.2,0.6-0.4,1-0.5,1.3
		c-0.1,0-0.2,0.1-0.3,0.1c-0.1,0-0.2,0-0.3-0.1c-0.3-0.9-1.3-2.9-1.9-4.2c-0.7,1.4-1.4,2.8-1.9,4.2c-0.1,0-0.2,0.1-0.3,0.1
		c-0.1,0-0.2,0-0.3-0.1c-0.2-0.7-0.6-1.5-1.1-2.4l-2.9-6.2c-0.3-0.7-0.5-0.9-1.1-1.1l-0.4-0.1c-0.1-0.1-0.1-0.1-0.1-0.2
		c0-0.1,0.1-0.2,0.1-0.2c0.5,0,1.2,0,1.8,0c0.6,0,1.1,0,1.9,0c0.1,0.1,0.1,0.3,0,0.4L15,77c-0.2,0-0.4,0.1-0.4,0.2
		c0.1,0.4,0.2,0.7,0.4,1l1.8,3.9c0.5,1.2,0.9,2,1.1,2.2c0.3-0.6,0.7-1.3,1-2.1c0.1-0.2,0.2-0.4,0.2-0.6c0-0.2-0.1-0.3-0.1-0.5
		l-1.6-3.4c-0.3-0.6-0.5-0.8-0.9-0.9L16,76.9c-0.1-0.1-0.1-0.1-0.1-0.2s0.1-0.2,0.1-0.2c0.6,0,1.1,0,1.7,0c0.6,0,1.2,0,1.8,0
		c0.1,0.1,0.1,0.3,0,0.4L19.2,77c-0.2,0-0.3,0.1-0.3,0.2c0,0.2,0.1,0.3,0.1,0.5c0.3,0.8,0.7,1.5,1,2.2c0.3-0.5,0.5-1.1,0.7-1.6
		c0.2-0.3,0.3-0.7,0.3-1.1c0-0.1-0.1-0.2-0.3-0.2l-0.4-0.1c-0.1-0.1-0.1-0.3,0-0.4c0.4,0,0.8,0,1.4,0c0.5,0,0.9,0,1.4,0
		c0.1,0.1,0.1,0.1,0.1,0.2s0,0.2-0.1,0.2L22.9,77c-0.6,0.1-0.7,0.3-1.2,1.2c-0.3,0.6-0.7,1.4-1.1,2.1c-0.1,0.1-0.1,0.3-0.2,0.4
		c0,0.1,0.1,0.2,0.1,0.4l0.7,1.4c0.3,0.7,0.7,1.6,0.9,1.9c0.8-1.8,1.6-3.8,2.4-5.8c0.2-0.5,0.4-0.9,0.5-1.4c0-0.1-0.3-0.2-0.5-0.2
		l-0.3-0.1c-0.1-0.1-0.1-0.1-0.1-0.2s0-0.2,0.1-0.2c0.6,0,1,0,1.6,0c0.5,0,1,0,1.5,0c0.1,0.1,0.1,0.3,0,0.4L27,77z"/>
	<path id="Shape" class="st1" d="M36.5,82.9c-0.4,0-0.4,0-0.5,0.4l-0.6,1.8c-0.3,0.9-0.2,0.9,0.3,1l0.4,0.1c0.1,0.1,0.1,0.4,0,0.4
		c-0.5,0-1,0-1.6,0c-0.5,0-1,0-1.5,0c-0.1-0.1-0.1-0.3,0-0.4l0.5-0.1c0.4-0.1,0.6-0.2,0.8-0.7c0.2-0.4,0.4-1,0.8-1.9l2.1-5.4
		c0.2-0.5,0.3-0.9,0.3-1.1c0.5-0.1,1-0.7,1.1-0.7c0.1,0,0.2,0,0.3,0.1c0.2,0.7,0.4,1.4,0.7,2.1l2.2,6.4c0.4,1,0.4,1.1,1.2,1.3l0.2,0
		c0.1,0.1,0.1,0.3,0,0.4c-0.6,0-1.2,0-2,0c-0.7,0-1.3,0-1.9,0c-0.1-0.1-0.1-0.3,0-0.4l0.3,0c0.5-0.1,0.6-0.2,0.4-0.8l-0.7-2.1
		c-0.1-0.4-0.2-0.4-0.6-0.4H36.5z M38.3,82.2c0.4,0,0.5,0,0.4-0.4L38.1,80c-0.1-0.4-0.3-0.8-0.4-1.2h0c-0.1,0.1-0.2,0.5-0.5,1.2
		l-0.6,1.8c-0.2,0.4-0.1,0.4,0.2,0.4H38.3z"/>
	<path class="st0" d="M52,86.2c-0.3-0.3-0.5-1.4-0.5-2.3c0.1-0.1,0.3-0.2,0.5-0.1c0.3,0.8,1.1,2.4,2.6,2.4c1.2,0,1.8-0.7,1.8-1.6
		c0-0.9-0.4-1.6-1.6-2.2L54.2,82C53,81.4,52,80.5,52,79.1c0-1.5,1.1-2.8,3.4-2.8c0.7,0,1.4,0.1,2.1,0.3c0.2,0.7,0.3,1.4,0.3,2.1
		c-0.1,0.1-0.3,0.2-0.5,0c-0.2-0.8-0.8-1.8-2.1-1.8c-1.2,0-1.7,0.8-1.7,1.6c0,0.6,0.4,1.3,1.4,1.9l0.9,0.5c1,0.5,2.1,1.5,2.1,3
		c0,1.7-1.3,3-3.5,3C53.6,86.9,52.7,86.7,52,86.2z"/>
	<path class="st0" d="M70.6,81.7c-0.8,0-0.8,0-0.8,0.4v2.2c0,1.6,0.1,1.6,0.9,1.7l0.5,0.1c0.1,0.1,0.1,0.4,0,0.4c-0.8,0-1.5,0-2.2,0
		c-0.7,0-1.4,0-1.9,0c-0.1-0.1-0.1-0.3,0-0.4l0.2,0c0.7-0.1,0.9-0.2,0.9-1.8v-5.7c0-1.6-0.1-1.7-0.9-1.8l-0.3,0
		c-0.1-0.1-0.1-0.3,0-0.4c0.7,0,1.4,0,2.1,0c0.7,0,1.4,0,2,0c0.1,0.1,0.1,0.3,0,0.4l-0.3,0c-0.7,0.1-0.9,0.1-0.9,1.8v1.8
		c0,0.4,0,0.5,0.8,0.5h3.6c0.8,0,0.8,0,0.8-0.5v-1.8c0-1.6-0.1-1.7-0.9-1.8l-0.3,0c-0.1-0.1-0.1-0.3,0-0.4c0.7,0,1.4,0,2.1,0
		c0.7,0,1.4,0,2,0c0.1,0.1,0.1,0.3,0,0.4l-0.3,0c-0.7,0.1-0.9,0.1-0.9,1.8v5.7c0,1.6,0.1,1.7,0.9,1.8l0.3,0c0.1,0.1,0.1,0.4,0,0.4
		c-0.7,0-1.4,0-2,0s-1.4,0-2.1,0c-0.1-0.1-0.1-0.3,0-0.4l0.3,0c0.7-0.1,0.9-0.1,0.9-1.8v-2.2c0-0.4,0-0.4-0.8-0.4H70.6z"/>
	<path class="st0" d="M90.1,84.4c0,1.6,0.1,1.7,0.9,1.8l0.3,0c0.1,0.1,0.1,0.3,0,0.4c-0.7,0-1.4,0-2,0c-0.7,0-1.4,0-2.1,0
		c-0.1-0.1-0.1-0.3,0-0.4l0.3,0c0.7-0.1,0.9-0.1,0.9-1.8v-5.7c0-1.6-0.1-1.7-0.9-1.8l-0.3,0c-0.1-0.1-0.1-0.3,0-0.4
		c0.7,0,1.4,0,2.1,0c0.7,0,1.4,0,2,0c0.1,0.1,0.1,0.3,0,0.4l-0.3,0c-0.7,0.1-0.9,0.1-0.9,1.8V84.4z"/>
	<path class="st0" d="M110.1,84c0,0.5,0,2.3,0,2.7c-0.1,0.2-0.3,0.2-0.5,0.2c-0.2-0.3-0.7-0.8-1.8-2.1l-3.6-4.1
		c-1-1.1-1.5-1.7-1.7-1.9c0,0,0,0.2,0,1v3c0,1.2,0,2.5,0.3,3c0.2,0.2,0.5,0.4,0.8,0.4l0.3,0c0.1,0.1,0.1,0.4,0,0.4
		c-0.6,0-1.2,0-1.7,0c-0.6,0-1.1,0-1.6,0c-0.1-0.1-0.1-0.1-0.1-0.2c0-0.1,0-0.2,0.1-0.2l0.3-0.1c0.3-0.1,0.6-0.1,0.7-0.4
		c0.2-0.5,0.2-1.8,0.2-3v-3.6c0-1.2,0-1.4-0.5-1.9c-0.2-0.1-0.5-0.3-0.8-0.3l-0.2,0c-0.1-0.1-0.1-0.4,0.1-0.4c0.6,0.1,1.4,0,1.8,0
		c0.3,0,0.7,0,1.1,0c0.3,0.7,1.9,2.6,2.5,3.2l1.5,1.6c0.6,0.7,2.1,2.3,2.2,2.4c0,0,0-0.1,0-0.4v-3c0-1.2,0-2.5-0.3-3
		c-0.2-0.2-0.5-0.4-0.8-0.4l-0.4,0c-0.1-0.1-0.1-0.4,0-0.4c0.6,0,1.2,0,1.8,0c0.7,0,1.1,0,1.6,0c0.1,0.1,0.1,0.1,0.1,0.2
		c0,0.1,0,0.2-0.1,0.2L111,77c-0.3,0.1-0.5,0.1-0.7,0.4c-0.2,0.5-0.2,1.8-0.2,3L110.1,84z"/>
	<path class="st0" d="M129.3,85c0,0.5,0.1,0.9,0.4,1.1c0.1,0.1,0,0.2,0,0.2c-0.2,0-0.5,0.1-0.7,0.1c-1,0.2-2,0.4-3,0.4
		c-1.8,0-3.6-0.5-4.7-1.7c-0.9-0.9-1.4-2.2-1.3-3.5c0-1.3,0.5-2.6,1.4-3.6c1.1-1.2,2.8-1.8,4.9-1.8c0.7,0,1.4,0.1,2,0.2
		c0.3,0.1,0.6,0.1,1,0.1c0,0.5,0.1,1.2,0.2,2.4c-0.1,0.1-0.1,0.1-0.2,0.1s-0.2,0-0.3-0.1c-0.3-1.5-1.4-2.2-2.9-2.2
		c-2.7,0-4,1.9-4,4.5c0,1.2,0.3,2.5,1.1,3.5c0.7,0.8,1.8,1.3,3,1.3c0.7,0,1.2-0.1,1.4-0.4c0.1-0.1,0.1-0.4,0.1-1v-0.5
		c0-1.1,0-1.2-1-1.3L126,83c-0.1-0.1-0.1-0.3,0-0.4c0.6,0,1.3,0,2.4,0c0.7,0,1.2,0,1.9,0c0.1,0,0.1,0.1,0.1,0.2s0,0.2-0.1,0.2
		l-0.3,0c-0.6,0.1-0.7,0.2-0.7,1.2L129.3,85z"/>
	<path class="st0" d="M142.6,77.8c0-0.6,0-0.7-0.4-0.7h-0.9c-1.4,0-1.8,0.2-2.4,1.4c-0.2,0.1-0.4,0-0.5-0.1c0.3-0.8,0.5-1.8,0.6-2.3
		c0,0,0.1-0.1,0.2-0.1c0.1,0,0.1,0,0.2,0.1c0.1,0.4,0.3,0.4,1.3,0.4h6.2c0.7,0,1,0,1.2-0.4c0.1,0,0.1-0.1,0.2-0.1
		c0.1,0,0.1,0,0.2,0.1c-0.2,0.8-0.2,1.6-0.2,2.4c-0.1,0.1-0.3,0.1-0.5,0c-0.2-1.2-0.5-1.5-2.1-1.5h-0.9c-0.4,0-0.4,0-0.4,0.7v6.6
		c0,1.6,0.1,1.7,0.9,1.7l0.5,0.1c0.1,0.1,0.1,0.4,0,0.4c-0.9,0-1.6,0-2.2,0c-0.7,0-1.4,0-2.4,0c-0.1-0.1-0.1-0.3,0-0.4l0.6-0.1
		c0.7-0.1,0.9-0.1,0.9-1.7L142.6,77.8z"/>
	<path class="st1" d="M167.7,81.6c0,3-2.3,5.2-5.4,5.2c-3.5,0-5.4-2.4-5.4-5.1c0-3.1,2.3-5.4,5.5-5.4
		C165.8,76.3,167.7,78.8,167.7,81.6z M158.9,81.3c0,2.1,0.9,5,3.5,5c1.7,0,3.1-1.3,3.1-4.4c0-2.3-1-5-3.5-5
		C160.6,76.9,158.9,78,158.9,81.3L158.9,81.3z"/>
	<path class="st0" d="M186,84c0,0.5,0,2.3,0,2.7c-0.1,0.2-0.3,0.2-0.5,0.2c-0.2-0.3-0.7-0.8-1.8-2.1l-3.6-4.1
		c-1-1.1-1.5-1.7-1.7-1.9c0,0,0,0.2,0,1v3c0,1.2,0,2.5,0.3,3c0.2,0.2,0.5,0.4,0.8,0.4l0.3,0c0.1,0.1,0.1,0.4,0,0.4
		c-0.6,0-1.2,0-1.7,0c-0.6,0-1.1,0-1.6,0c-0.1-0.1-0.1-0.3,0-0.4l0.3-0.1c0.3-0.1,0.6-0.1,0.7-0.4c0.2-0.5,0.2-1.8,0.2-3v-3.6
		c0-1.2,0-1.4-0.5-1.9c-0.3-0.1-0.5-0.3-0.8-0.3l-0.2,0c-0.1-0.1-0.1-0.4,0.1-0.4c0.6,0.1,1.4,0,1.8,0c0.3,0,0.7,0,1.1,0
		c0.3,0.7,1.9,2.6,2.5,3.2l1.5,1.6c0.6,0.7,2.1,2.3,2.2,2.4c0,0,0-0.1,0-0.4v-3c0-1.2,0-2.5-0.3-3c-0.2-0.2-0.5-0.4-0.8-0.4l-0.4,0
		c-0.1-0.1-0.1-0.4,0-0.4c0.6,0,1.2,0,1.8,0c0.7,0,1.1,0,1.6,0c0.1,0.1,0.1,0.1,0.1,0.2c0,0.1,0,0.2-0.1,0.2l-0.4,0.1
		c-0.3,0.1-0.5,0.1-0.7,0.4c-0.2,0.5-0.2,1.8-0.2,3L186,84z"/>
	<path class="st0" d="M217.4,79.1c-0.1,0.1-0.3,0.1-0.5,0c-0.3-1-0.9-2.2-3-2.2c-1.9,0-3.9,1.4-3.9,4.5c0,3.2,2,4.8,4,4.8
		c1.9,0,2.8-1.3,3.2-2.3c0.1-0.1,0.2-0.1,0.2-0.1c0.1,0,0.2,0.1,0.2,0.1c-0.1,0.8-0.3,1.6-0.7,2.3c-0.2,0-0.4,0.1-0.5,0.1
		c-0.8,0.2-1.6,0.3-2.4,0.4c-1.5,0-2.8-0.3-3.9-1c-1.2-0.8-2.2-2.2-2.2-4.2c0-1.6,0.7-3.1,1.9-4c1.2-0.9,2.7-1.3,4.2-1.3
		c0.9,0,1.8,0.1,2.6,0.3c0.2,0,0.3,0.1,0.4,0.1C217.2,77.1,217.2,78,217.4,79.1z"/>
	<path class="st1" d="M237.2,81.6c0,3-2.3,5.2-5.4,5.2c-3.5,0-5.4-2.4-5.4-5.1c0-3.1,2.3-5.4,5.5-5.4
		C235.4,76.3,237.2,78.8,237.2,81.6z M228.5,81.3c0,2.1,0.9,5,3.5,5c1.7,0,3.1-1.3,3.1-4.4c0-2.3-1-5-3.5-5
		C230.2,76.9,228.5,78,228.5,81.3L228.5,81.3z"/>
	<path class="st0" d="M248.9,84.1c0,0.8,0,1.3,0.3,1.6c0.2,0.2,0.4,0.3,1.7,0.3c1.7,0,1.9-0.1,2.6-1.6c0.2-0.1,0.4,0,0.5,0.1
		c-0.2,0.8-0.4,1.5-0.6,2.2c-0.6,0-2,0-3.7,0h-1.6c-0.8,0-1.5,0-2.2,0c-0.1-0.1-0.2-0.4,0-0.4l0.5-0.1c0.7-0.1,0.9-0.1,0.9-1.7v-5.7
		c0-1.6-0.1-1.6-0.9-1.7l-0.4-0.1c-0.1-0.1-0.1-0.4,0-0.4c0.8,0,1.4,0,2.2,0c0.7,0,1.4,0,2,0c0.1,0.1,0.1,0.1,0.1,0.2
		c0,0.1,0,0.2-0.1,0.2l-0.3,0.1c-0.7,0.1-0.9,0.2-0.9,1.7L248.9,84.1z"/>
	<path class="st0" d="M265.5,84.1c0,0.8,0,1.3,0.3,1.6c0.2,0.2,0.4,0.3,1.6,0.3c1.7,0,1.9-0.1,2.6-1.6c0.2-0.1,0.4,0,0.5,0.1
		c-0.2,0.8-0.4,1.5-0.6,2.2c-0.6,0-2,0-3.7,0h-1.6c-0.8,0-1.5,0-2.2,0c-0.1-0.1-0.2-0.4,0-0.4l0.5-0.1c0.7-0.1,0.9-0.1,0.9-1.7v-5.7
		c0-1.6-0.1-1.6-0.9-1.7l-0.4-0.1c-0.1-0.1-0.1-0.4,0-0.4c0.8,0,1.4,0,2.2,0c0.7,0,1.4,0,2,0c0.1,0.1,0.1,0.1,0.1,0.2
		c0,0.1,0,0.2-0.1,0.2l-0.3,0.1c-0.7,0.1-0.9,0.2-0.9,1.7L265.5,84.1z"/>
	<path class="st0" d="M280.3,78.7c0-1.6-0.1-1.7-0.9-1.8l-0.2,0c-0.1-0.1-0.1-0.3,0-0.4c0.6,0,1.3,0,2,0h2.9c1,0,1.9,0,2.1,0
		c0.1,0.3,0.2,1.5,0.2,2.1c-0.1,0.1-0.4,0.2-0.5,0.1c-0.2-0.9-0.5-1.3-1-1.4c-0.4-0.1-0.8-0.1-1.2-0.1h-1c-0.7,0-0.7,0-0.7,0.9v2.6
		c0,0.4,0,0.4,0.4,0.4h0.7c1.3,0,1.6,0,1.7-0.7l0.1-0.5c0.1-0.1,0.3-0.1,0.5,0c0,0.4,0,1,0,1.5s0,1.1,0,1.6c-0.1,0.1-0.3,0.1-0.5,0
		l-0.1-0.6c-0.1-0.6-0.4-0.7-1.7-0.7h-0.7c-0.4,0-0.4,0-0.4,0.4v1.9c0,0.8,0,1.3,0.3,1.6c0.2,0.2,0.4,0.3,1.7,0.3
		c1.9,0,2.3-0.4,2.8-1.6c0.2-0.1,0.4-0.1,0.5,0.1c-0.1,0.8-0.3,1.5-0.6,2.2c-0.7,0-2,0-3.8,0h-1.7c-0.7,0-1.6,0-2.3,0
		c-0.1-0.1-0.1-0.3,0-0.4l0.6-0.1c0.7-0.1,0.9-0.1,0.9-1.7L280.3,78.7z"/>
	<path class="st0" d="M305.2,85c0,0.5,0.1,0.9,0.4,1.1c0,0.1,0,0.2,0,0.2c-0.2,0-0.5,0.1-0.7,0.1c-1,0.2-2,0.4-3,0.4
		c-1.8,0-3.6-0.5-4.7-1.7c-0.9-0.9-1.4-2.2-1.3-3.5c0-1.3,0.5-2.6,1.4-3.6c1.1-1.2,2.8-1.8,4.9-1.8c0.7,0,1.4,0.1,2,0.2
		c0.3,0.1,0.6,0.1,1,0.1c0,0.5,0.1,1.2,0.2,2.4c-0.1,0.1-0.1,0.1-0.2,0.1c-0.1,0-0.2,0-0.3-0.1c-0.3-1.5-1.4-2.2-2.9-2.2
		c-2.7,0-4,1.9-4,4.5c0,1.2,0.3,2.5,1.1,3.5c0.7,0.8,1.8,1.3,3,1.3c0.7,0,1.2-0.1,1.4-0.4c0.1-0.1,0.1-0.4,0.1-1v-0.5
		c0-1.1,0-1.2-1-1.3l-0.6-0.1c-0.1-0.1-0.1-0.3,0-0.4c0.6,0,1.3,0,2.4,0c0.7,0,1.2,0,1.9,0c0.1,0,0.1,0.1,0.1,0.2
		c0,0.1,0,0.2-0.1,0.2l-0.3,0c-0.6,0.1-0.7,0.2-0.7,1.2L305.2,85z"/>
	<path class="st0" d="M316.1,78.7c0-1.6-0.1-1.7-0.9-1.8l-0.2,0c-0.1-0.1-0.1-0.3,0-0.4c0.6,0,1.3,0,2,0h2.9c1,0,1.9,0,2.1,0
		c0.1,0.3,0.2,1.5,0.2,2.1c-0.1,0.1-0.4,0.2-0.5,0.1c-0.2-0.9-0.5-1.3-1-1.4c-0.4-0.1-0.8-0.1-1.2-0.1h-1c-0.7,0-0.7,0-0.7,0.9v2.6
		c0,0.4,0,0.4,0.4,0.4h0.7c1.3,0,1.6,0,1.7-0.7l0.1-0.5c0.1-0.1,0.4-0.1,0.5,0c0,0.4,0,1,0,1.5s0,1.1,0,1.6c-0.1,0.1-0.4,0.1-0.5,0
		l-0.1-0.6c-0.1-0.6-0.4-0.7-1.7-0.7h-0.7c-0.4,0-0.4,0-0.4,0.4v1.9c0,0.8,0,1.3,0.3,1.6c0.2,0.2,0.4,0.3,1.7,0.3
		c1.9,0,2.3-0.4,2.8-1.6c0.2-0.1,0.4-0.1,0.5,0.1c-0.1,0.8-0.3,1.5-0.6,2.2c-0.7,0-2,0-3.8,0H317c-0.7,0-1.6,0-2.3,0
		c-0.1-0.1-0.1-0.3,0-0.4l0.6-0.1c0.7-0.1,0.9-0.1,0.9-1.7L316.1,78.7z"/>
	<path class="st1" d="M144.4,29.9c-0.3-0.7-2.6,0-2.6,0s-4.4,1-8,0.4c-2.2-0.4-3-3.2-4.2-2.6c-1.3,0.6-11.8,5.7-14,6.7
		c-2.5,1.2-1.7,0.1-1.2-2c0.5-2.2,0.6-4.3-1.4-4.5c-2-0.2-3.6,0.2-6.9,1.4c-2.1,0.8-2.6,0.9-2.3,0.4c0.4-0.6,0.6-2.7-1.1-2.5
		c-1.6,0.3-17.5,4.7-30.8,5.6c0,0,2.5-2,4.1-3.5c1.8-1.7,3.3-3.4,2.9-4.1c-0.5-0.9-8,0.3-14.3,1.6s-19.3,4-18.6,0.8s8.1-3.6,13.8-5
		s26.8-6.3,25.3-12.5c-1.5-6.3-16.4-1.6-21.7,0.6c-4.8,2-14.8,6.9-18.7,12.1c-0.8,1.1-1.9,1.2-12.2,3.4c-5,1.1-8,2.2-9.4,3.7
		c-0.9,0.9-1.3,2.4-1.5,3.5c-0.1,0.7-1.4,0.9-2.1,1.3c-1.9,1-16.8,4.7-15.9,15.8s21.5,8.5,28.7,6c7-2.4,20.8-9.1,35.9-20.7
		c0,0,11.7-1.1,17.3-2.2c4-0.7,9.6-2.4,11-2.5c1-0.1,1.3,0.2,0.1,1.3c-2.6,2.4-11.5,6.6-15.8,8.2S61,49.8,63.6,54.5
		c2.2,3.9,11.9-1.5,18-6.1s14.5-13.1,16.3-13.8c2.7-1.1,12.8-4.1,13.1-3c0.9,2.7-3.1,6-3.1,6s-7,6-11.7,10.5s-5.7,6.8-3.9,8.3
		s7.5-3.7,9.4-5.7s7.3-10.3,11.8-12.5c4.5-2.2,15.2-7.3,15.2-7.3s2.9,1.9,6,2.1c3.7,0.3,7.6-1.3,7.6-1.3S144.8,30.6,144.4,29.9z
		 M56.6,17.6c8.7-5,22.6-9.6,24-7.1s-7.9,5.4-10.6,6.3c-3.3,1-15.8,4.7-19.6,5.3C50.3,22.1,53.6,19.3,56.6,17.6z M26.8,54.7
		C12.2,58,5.9,52.9,6.6,48.4s5.9-10.3,20.2-13.6c6.2-1.4,8.1,0.4,8.2,2.9c0,0-1.1,0.2-2.5,0.5C29.2,39,25,40.5,22,42.6
		c-2.6,1.9-7.4,5.6-6,9.2c1,2.5,10.4,0.9,13.7-1.1c8.1-4.9,8.6-10.5,8.6-10.5s16.9-2.5,23.2-3.5C61.6,36.7,43.1,51,26.8,54.7
		L26.8,54.7z M35,40.8c0,0-0.8,4.4-6.3,7.2c-5.3,2.7-8.8,3-9.1,2c-0.4-1.3,1-2.9,4.1-5.2C26.4,42.9,31.2,41.2,35,40.8z M65,33.6
		c0,0-19.3,2.7-22.8,3.2c-3.5,0.5-3.8,0.4-3.8,0.4s-0.9-4.8-5-5.2c-3.2-0.3-7.4,1-7.4,0.5c-0.2-1.4,2-1.9,4.7-2.6
		c2.8-0.7,11.2-2.6,11.2-2.6s-0.6,2.3,2.4,3.6c5.1,2.3,20.5-1.2,23.3-1.8s6-1.7,4.8-0.4C70.6,30.6,65,33.6,65,33.6z M83.7,43.8
		c-10,8.2-14.2,9.1-14.2,9.1s-2.5,0.6-2.7,0.2c-0.5-0.9,1.3-2.7,1.3-2.7c4.3-4.3,13.1-8,13.1-8s6.4-2.5,6.1-2
		C86.4,41.7,83.7,43.8,83.7,43.8z"/>
	<path class="st0" d="M192.8,39.1c0,0-1.9-0.6-1.5-1.5c0.4-0.9,1.9-0.3,1.9-0.3s1.7,0.7,1.4,1.5S192.8,39.1,192.8,39.1z"/>
	<path class="st1" d="M330.5,31.4c-2.5-4.6-11.5-3.1-23.2-3.8c-1.7-0.1-12.3-1-15.8-2.3c-1-0.4-3.2-0.1-4.1,0.1
		c-1.2,0.3-2.5,0.2-3.7,0c-10.4-2.6-14.2-5.2-14.2-5.2s4.3-1.9,8.3-8.8c4.2-7.1-0.5-10.7-4.6-11C268.4,0,260.4,2.4,259,9.1
		s4.5,10.9,4.5,10.9s-9.5,5.9-18.2,7.2c-8.6,1.3-14,1-14,1s-4.3-0.4-4.5,1.2s4.5,1.7,4.5,1.7c5.9,0,7.4,0.4,15.8-1.2
		c11-2,19.2-7.9,19.2-7.9c7.9,4.2,11.5,4.9,14,5.7c1.3,0.4,2.6,0.7,4,0.8c-4.2,6.5-14,11.6-16.1,12.6c-2.1,1-5.2,2.7-3.8,3.3
		c1.1,0.5,5-1.8,7.1-2.1s-0.1,1.4-1.6,2.7c-1.4,1.2-6,4.7-9.8,6.5c-3.9,1.8-4.8,5.7-4.2,6.5c0.6,0.8,4.2-1.1,5.8-3.2
		c2-2.9,6.6-5.7,7.9-6.2c1.3-0.6,4.1,0.1,7,0.5c2.8,0.4,2.7,1.3,2,2.5c-0.7,1.1-1.7,3.6,1.8,4.9c3.5,1.2,8.8-0.5,11-2.2
		c2.2-1.7,4.4-5.6,5.6-6c1.2-0.4,2.6,0.9,5.8,0.3c5.8-1.1,7.7-1.7,7.1-1c-1,1.2-0.8,2.7-2.5,4.1s-5,3.2-5,3.2s-3.2,1.5-2.2,2.5
		c1.2,1.1,2.8,0.1,2.8,0.1c2-1.1,5.6-3.4,6.6-4c0.9-0.6,4.1,1.8,4.1,1.8c5.6,3.5,10,1.6,10,1.6s3.1-1.1,2.8-2.3
		c-0.3-1.2-3.8,0.1-3.8,0.1c-4.2,1.2-6.2-0.2-9.1-2c-2.9-1.8-1.9-3-1.3-3.7c1-1.2,2.5-1.7,1.8-3.1s-7.5-0.7-10.6,0.1
		c-3.6,0.9-5.4-0.2-7.2,0s-3.4,2.3-4.1,3.6c-1.2,2.2-3.1,3.2-5.3,4.2c-1.4,0.6-6.4,1.8-6.3-0.7c0.2-2.5,3.4-3.6,5-3.8
		c1.5-0.2,5.3,0.3,5.1-1.5c-0.2-1.9-2-1.3-4.7-1.1c-2.2,0.2-4.9,0.4-4.9,0.4c-1.3,0.1-10,0.7-6.5-3.8c3.7-4.7,14.7-14.4,14.7-14.4
		c2.7-0.1,14,1.1,18.4,1.2c15.9,0.3,18.9,1.8,19.8,2.7c0.5,0.5,0.7,1.1,0.6,1.8c-0.1,0.8,0.6,0.9,1,0.7
		C330.5,34.2,331.4,33,330.5,31.4z M261.7,10.5c0-5.8,6.6-7.4,9.2-7.5s6.7,0.8,3.8,7c-2.9,6.2-8.2,8.5-8.2,8.5S261.7,16,261.7,10.5z
		"/>
	<path class="st0" d="M87.8,24.2c-1.3,0-1.3,1.4-1.3,1.4c0,0.7,0.6,1.2,1.3,1.3c1.2,0.1,1.3-1.3,1.3-1.3c0-0.4-0.1-0.7-0.3-1
		C88.5,24.3,88.2,24.2,87.8,24.2z"/>
	<path class="st0" d="M73.9,38c-1.1,0.1-1.1,1.3-1.1,1.3s0,1,1.2,1c0.3,0,0.6-0.1,0.8-0.3c0.2-0.2,0.3-0.5,0.3-0.8
		C75,39.2,75,37.9,73.9,38z"/>
	<path class="st1" d="M242.2,55c8.3-0.4,13.6-4.1,13.1-6.7c-0.6-2.6-3.7-3.9-7.8-2.7c-4.9,1.4-11.9,7-11.9,7
		c-3.4,0.1-6.8,0-10.2-0.4c-5.3-0.6-11-4.1-9.2-5.8s4.3-3.7,3.5-4.9c-0.8-1.2-2.1-0.4-6.4,2.1c-4.3,2.5-14.5,6.6-18.6,7.7
		s-9.3,2.4-10.3,0.9s1.1-2.7,2.1-3c0.9-0.4,9.7-3.8,6.1-4.7c-3.6-0.9-6.1,2.6-10.7,4.8c-4.6,2.2-10.1,2.9-11.1,2.9s-1.3-1.3-0.1-3.1
		c1.1-1.8-0.3-2.7-1.1-3.1c-0.8-0.4-1.8-0.9-0.8-3.5c0.2-0.5,5.1-1.1,10.3-3c4.1-1.5,10.7-4.5,17.1-7.9c7.6-4.1,12.9-14.9,0.4-11.1
		s-28.6,19.7-28.6,19.7c-2.2,0.9-7.1,1.6-7.1,1.6s-1.6,0.2-1.5,1.3c0.1,0.7,2.2,0.4,2.2,0.4s2.3-0.4,4.3-0.5c0.6,0-1.6,3.4-4.8,5.3
		s-8.3,6.3-8.3,6.3s-1.7,1.6-0.9,2.5c0.8,0.9,2.6-0.9,2.6-0.9c1.1-1.2,5.7-5.1,8.1-6.6c2.4-1.6,5.2-2,4.9,0.5
		c-0.4,2.5-3,3.1,0.3,4.6c3.3,1.5,6.5-0.3,9.8-1.3c3.3-1,2.2-0.9,4.5,0.9c2.4,1.7,9.5,0.4,14-1.1c4.5-1.4,13.1-5.2,14.8-5.7
		c1.7-0.5-0.8,2.2-2.2,3.4c-1.8,1.5-3.8,2.1-5.7,3.9s-1.2,2.9,0.6,2.3c1.8-0.6,7.2-5.8,9.2-6.5c1.9-0.7,2.7-0.1,3.9,0.9
		c1.2,1,5.4,2.7,7.3,3c1.9,0.3,7.5,1.2,8.8,1.2c0.8,0-2,1.7-4.1,3.9c-1.4,1.4-3.8,3.7-3.8,3.7s-1-0.3-2.6,0c-1.1,0.3-2.2,0.9-3,1.7
		c-7.9,0.3-15,3.1-15,3.1s-3.2,1.6-2.9,2.6c0.3,1,3.4-0.2,3.4-0.2c11.3-4.3,15.2-3.2,15.2-3.2c2.1,1.4,2-0.2,6.4-0.6
		c4.3-0.4,10.9,3.1,13,5.2c2.7,2.7,2.9,5.1,3.6,5s2.9-1.9,0.3-5.5c-2.6-3.5-8.5-6-11.2-6.9c-2.4-0.8-3.5-0.6-3.5-0.6
		s7.7-7.6,8.9-8.4C238,54.9,241,55.1,242.2,55z M247.5,48.3c3-0.9,4.5-0.6,4.3,0.2c-0.2,0.8-1.7,2.4-4.7,3c-2.1,0.4-4.3,0.7-6.4,0.8
		C240.7,52.3,244.5,49.1,247.5,48.3z M172.3,39.1c4.3-3.9,8.8-7.6,13.6-10.9c8-5.5,14-5.2,14-5.2s1.7,2.7-11.5,9.4
		C179.5,37,173.9,38.6,172.3,39.1z"/>
	<path class="st1" d="M155.3,38.5c-4.1,3.9-11.8,10.1-11.8,10.1c-2,1.3-7.2,2.9-11.7,3.3c-3.3,0.3-6,0-6.2-1c-0.3-1,1.3-2.1,2.7-4.7
		s-1.8-4.3-7.6-2.2c-5.8,2-9.6,7-9.6,7s-2.4,3,0,3.9s9.2-1.6,10.3-2c1.2-0.4,1.9,0.1,1.9,0.1c4.4,2.8,12-0.2,14.2-0.5
		c2.2-0.3,2.7,0.1,1.2,2.2c-1.5,2.1-9.5,9.3-11.2,10.7c-3.2,2.7-6,4-7.9,5.2c-2,1.2-1.8,2.5-1.8,2.5c0.5,6.3,3.2,2,16.8-11.5
		s21.5-19.4,25.1-23.4C162.1,35.5,159.4,34.5,155.3,38.5z M121.3,50.8c-3.1,1.9-8.1,3-7.2,0.8c0,0,1.2-2.7,4.6-4.4
		c4.5-2.3,6.8-1.3,6.8-1.3S124.8,48.6,121.3,50.8L121.3,50.8z"/>
</g>
</svg>
