<?xml version="1.0" encoding="UTF-8"?>
<svg width="18px" height="18px" viewBox="0 0 18 18" version="1.1" xmlns="http://www.w3.org/2000/svg" xmlns:xlink="http://www.w3.org/1999/xlink">
    <!-- Generator: Sketch 53.2 (72643) - https://sketchapp.com -->
    <title>Icon/Arrows/Single-Down</title>
    <desc>Created with Sketch.</desc>
    <g id="Symbols" stroke="none" stroke-width="1" fill="none" fill-rule="evenodd">
        <g id="Basics/Dropdown" transform="translate(-267.000000, -15.000000)" fill="#EBAA00">
            <g id="Icon/UI/down" transform="translate(267.000000, 15.000000)">
                <g id="down-arrow-in-circular-button">
                    <path d="M9,0 C4.02976471,0 0,4.02976471 0,9 C0,13.9702353 4.02976471,18 9,18 C13.9702353,18 18,13.9702353 18,9 C18,4.02976471 13.9702353,0 9,0 Z M9,16.3125 C4.968,16.3125 1.6875,13.032 1.6875,9 C1.6875,4.968 4.968,1.6875 9,1.6875 C13.032,1.6875 16.3125,4.968 16.3125,9 C16.3125,13.032 13.032,16.3125 9,16.3125 Z M12.0937647,6.75 C11.8473824,6.75 11.628,6.85688235 11.4738824,7.02505882 L11.4716471,7.02338235 L9,9.72 L6.52782353,7.02335294 L6.52555882,7.02502941 C6.372,6.85685294 6.15261765,6.74997059 5.90623529,6.74997059 C5.4405,6.74997059 5.06247059,7.12797059 5.06247059,7.59373529 C5.06247059,7.81367647 5.14852941,8.01167647 5.28635294,8.16241176 L5.28408824,8.16408824 L8.37785294,11.5390882 C8.53817647,11.7129118 8.76317647,11.8124706 8.99997059,11.8124706 C9.23676471,11.8124706 9.46176471,11.7129118 9.62152941,11.5390882 L12.7152941,8.16411765 L12.7130588,8.16244118 C12.8514412,8.01170588 12.9375,7.81370588 12.9375,7.59376471 C12.9375,7.128 12.5595,6.75 12.0937647,6.75 Z" id="Shape" fill-rule="nonzero"></path>
                </g>
            </g>
        </g>
    </g>
</svg>