<?xml version="1.0" encoding="UTF-8"?>
<svg width="260px" height="260px" viewBox="0 0 260 260" version="1.1" xmlns="http://www.w3.org/2000/svg" xmlns:xlink="http://www.w3.org/1999/xlink">
    <!-- Generator: Sketch 53.1 (72631) - https://sketchapp.com -->
    <title>favicon</title>
    <desc>Created with Sketch.</desc>
    <g id="favicon" stroke="none" stroke-width="1" fill="none" fill-rule="evenodd">
        <rect id="Rectangle" fill="#7D092D" x="0" y="0" width="260" height="260"></rect>
        <g id="2013-WC-logo.rev" transform="translate(30.000000, 64.000000)" fill="#FFFFFF">
            <path d="M194.246594,6.3928342 C185.433873,8.30707269 182.580574,12.3161382 175.501504,28.0634586 C161.054421,60.5693952 148.557694,86.5741445 137.830735,113.337366 C134.977436,120.560907 133.424374,125.581268 131.726842,129.229157 C130.717385,129.73229 129.604135,129.992048 128.476249,129.987629 C127.223419,130.104226 125.964573,129.839868 124.864478,129.229157 C120.855412,117.346431 108.828216,92.678037 101.171262,76.2444802 C92.5752475,93.6532151 84.1598217,111.242539 76.9001625,129.229157 C75.8907051,129.73229 74.7774552,129.992048 73.6495688,129.987629 C72.3960963,130.115944 71.1337678,129.850855 70.0377981,129.229157 C66.967793,120.597025 62.2002556,110.26736 56.6381287,98.6374587 L20.0508912,20.3703869 C16.0418256,11.7382549 14.1275872,8.70436747 6.29004466,6.79012898 L0.944623978,5.45377381 C0.246585903,4.68930382 -0.0898658174,3.66205828 0.0206628555,2.63276002 C0.131191528,1.60346175 0.678074004,0.671070888 1.5225073,0.0722354147 C8.38487169,0.469530195 16.4391204,0.650118732 24.63784,0.650118732 C31.5363221,0.650118732 38.7959813,0.650118732 47.9698789,0.0722354147 C49.4801034,1.46970265 49.7268491,3.76752146 48.5477622,5.45377381 L43.7802249,6.57342273 C41.2881031,7.15130605 39.3738646,7.90977791 39.3738646,9.64342786 C40.2527115,14.122786 41.7989188,18.4448616 43.9608134,22.465214 L66.714969,71.8020022 C73.3967449,86.2490851 78.2004,96.25369 80.1146384,99.3236952 C84.123704,91.6667412 88.313358,82.6734321 92.9003068,72.7410626 C94.1095787,70.4632781 95.0084662,68.0338523 95.5730172,65.5175211 C95.3354281,63.5211773 94.7614689,61.5794856 93.8754849,59.7748056 L73.7940397,17.3364995 C70.1822689,9.67954556 67.8707357,7.76530708 62.7059035,6.50118732 L57.1437766,5.38153839 C56.4457385,4.61706841 56.1092868,3.58982287 56.2198155,2.5605246 C56.3303441,1.53122634 56.8772266,0.598835474 57.7216599,6.39488462e-14 C65.5592024,0.397294781 71.8798012,0.577883317 78.3809885,0.577883317 C86.0379424,0.577883317 93.4781902,0.577883317 101.135144,6.39488462e-14 C102.669494,1.40670773 102.843578,3.76476102 101.532439,5.38153839 L96.3676067,6.50118732 C94.236662,6.8984821 93.0808954,7.83754249 93.0808954,9.21001537 C93.2526752,11.3962394 93.8411364,13.5294115 94.8145453,15.4944964 C99.0403171,25.0656889 103.41056,34.8174699 107.81692,43.4134842 C111.067514,36.9122969 114.137519,29.8332263 117.171406,22.7541556 C119.223631,18.5927688 120.647697,14.1501712 121.397178,9.57119244 C121.397178,8.23483727 120.241411,7.29577688 117.568701,6.71789356 L112.22328,5.38153839 C110.917879,3.7297487 111.174821,1.33697159 112.801164,2.69254243e-13 C117.965996,0.397294781 123.311416,0.577883317 130.571076,0.577883317 C137.252851,0.577883317 141.8398,0.577883317 147.979811,2.69254243e-13 C148.854818,0.630726866 149.402132,1.61952392 149.472026,2.69589289 C149.54192,3.77226185 149.127079,4.82353648 148.340988,5.56212693 L143.57345,6.50118732 C136.349909,7.83754249 134.580141,10.1129581 128.476249,21.4178004 C124.250477,29.0747544 119.482939,39.4766541 115.293285,48.000433 C114.456519,49.7047115 113.814391,51.4978229 113.379047,53.3458537 C113.676965,54.9358784 114.187178,56.4786642 114.895991,57.9328026 L123.130828,75.7388323 C127.139893,84.3348466 132.088019,96.0008661 133.96614,99.2514597 C143.717921,76.4973041 154.047585,51.2510267 164.160543,27.0160451 C166.83148,21.3447203 168.83148,15.3810847 170.119965,9.24613308 C170.119965,7.8736602 166.508194,7.33189459 163.618778,6.35671649 L160.368184,5.4176561 C159.525837,4.76420055 159.04818,3.74625385 159.083935,2.68076127 C159.119689,1.61526869 159.664514,0.631633459 160.548773,0.0361177073 C167.772314,0.433412488 173.551147,0.614001025 180.052335,0.614001025 C186.553522,0.614001025 192.476826,0.614001025 198.40013,0.0361177073 C200.008401,1.38278835 200.263697,3.76022519 198.978013,5.4176561 L194.246594,6.3928342 Z" id="Path"></path>
        </g>
    </g>
</svg>