<?xml version="1.0" encoding="UTF-8"?>
<svg width="60px" height="60px" viewBox="0 0 60 60" version="1.1" xmlns="http://www.w3.org/2000/svg" xmlns:xlink="http://www.w3.org/1999/xlink">
    <!-- Generator: Sketch 53.2 (72643) - https://sketchapp.com -->
    <title>Icon/large/activity</title>
    <desc>Created with Sketch.</desc>
    <g id="Symbols" stroke="none" stroke-width="1" fill="none" fill-rule="evenodd">
        <g id="Component/Large/Story" transform="translate(-540.000000, -530.000000)" fill="#EBAA00">
            <g id="Content" transform="translate(540.000000, 285.000000)">
                <g id="Icon/large/activity" transform="translate(0.000000, 245.000000)">
                    <g id="activities">
                        <path d="M9.64475437,43.6931406 L10.9673463,42.3705487 L17.5135149,48.9167173 L16.190923,50.2393092 L9.64475437,43.6931406 Z M19.7368421,34.7368421 C22.7846053,34.7368421 25.2631579,37.2153947 25.2631579,40.2631579 C25.2631579,43.3109211 22.7846053,45.7894737 19.7368421,45.7894737 C16.6890789,45.7894737 14.2105263,43.3109211 14.2105263,40.2631579 C14.2105263,37.2153947 16.6890789,34.7368421 19.7368421,34.7368421 Z M19.7368421,43.9473684 C21.7686842,43.9473684 23.4210526,42.295 23.4210526,40.2631579 C23.4210526,38.2313158 21.7686842,36.5789474 19.7368421,36.5789474 C17.705,36.5789474 16.0526316,38.2313158 16.0526316,40.2631579 C16.0526316,42.295 17.705,43.9473684 19.7368421,43.9473684 Z M59.7252893,7.77501692 C60.0907879,8.13970212 60.0917251,8.73219839 59.7271637,9.09875857 C59.7271637,9.09875857 58.8359094,9.99500292 57.5819681,11.2559325 L59.7252893,13.3999814 L58.4001227,14.7255981 L56.2605502,12.5852991 C55.7216741,13.1271707 55.156557,13.6943546 54.5895656,14.2634135 C53.9569719,14.898097 53.4021638,15.454031 52.9045235,15.9527778 L55.0394101,18.0883894 L53.7142434,19.414006 L51.5765453,17.275582 C49.5663031,19.2649444 49.0405474,19.6971292 48.6909808,19.6971292 C48.5888287,19.6971292 48.5016713,19.660567 48.3957704,19.6174422 C48.281435,19.5705675 48.1774085,19.5002555 48.0902511,19.4130685 L46.8784827,18.2008887 L36.7241824,28.3586371 C37.5573317,30.0423765 37.9490712,31.8958023 37.8872176,33.7407906 L51.7499228,48.3150737 C53.627086,47.6569529 55.4133432,47.9072638 56.5238966,49.0172568 C58.3813791,50.8763076 57.7984558,54.370348 55.1977928,56.9718941 C54.0066423,58.1643866 52.5624543,58.9781314 51.1313868,59.2640671 C50.7527677,59.3400042 50.3844576,59.3775039 50.0302051,59.3775039 C48.9205889,59.3775039 47.956235,59.0081313 47.2458557,58.2975107 C46.1034383,57.1556429 45.8710187,55.3181545 46.5907698,53.3934792 L34.536814,41.3354302 C33.8461154,42.0179259 33.0860657,42.6160472 32.2416703,43.0988566 C29.9840137,44.391661 28.3355213,46.6200844 27.720734,49.2113181 C27.123753,51.7341146 25.834199,54.0403501 23.9935856,55.880651 C21.3301319,58.5450092 17.8157224,60 14.0642075,60 C13.944249,60 13.8242905,59.9990625 13.7033948,59.9953125 C9.8178637,59.8987506 6.23785195,58.254386 3.6203198,55.3640917 C-1.07211969,50.1816244 -1.22019348,42.245737 3.27637626,36.9048332 C5.26318906,34.5442231 7.8854071,32.9336082 10.8600032,32.2454876 C13.3041579,31.6792411 15.5102698,29.9720644 17.0697304,27.4380179 C17.5120774,26.7170849 18.0443933,26.0467767 18.645123,25.438343 L1.42826548,8.21563914 C-0.433902937,6.35377589 -0.445149047,3.31067008 1.40389891,1.43474442 C2.33826323,0.486000402 3.58564429,-0.0296213457 4.916434,0.00131595913 C6.24722371,0.0256908054 7.47586125,0.57974981 8.37648724,1.56130612 L27.1734233,22.1111765 C27.2071616,22.112114 27.2409,22.1093015 27.2746383,22.1111765 C28.8116067,22.1964885 30.2960932,22.6071109 31.6503123,23.2830441 L41.8036755,13.1252957 L40.5919071,11.9131158 C40.2254714,11.5465556 40.2254714,10.9540594 40.5919071,10.5874992 L42.7408514,8.43782524 L40.5919071,6.2881513 L41.9170738,4.96253466 L44.066018,7.11220861 L47.4267306,3.75035481 L45.2796607,1.60068087 L46.6048274,0.275064232 L48.7537716,2.42473817 L50.9027158,0.275064232 C51.2691516,-0.0914959554 51.8614467,-0.0914959554 52.2278825,0.275064232 L59.7252893,7.77501692 Z M2.75343213,6.89096 L20.0808764,24.2242882 C21.4763313,23.2192945 23.0751533,22.5414863 24.7648814,22.2546131 L6.99415286,2.82692314 C6.44496781,2.22880191 5.69428995,1.89036654 4.88175849,1.87536664 C4.05610657,1.86317921 3.30730306,2.17161477 2.73750014,2.75098611 C1.61007759,3.89660389 1.61663783,5.75377967 2.75343213,6.89096 Z M34.3671851,38.6616971 C35.2612509,37.3848302 35.7888809,35.9279643 35.9622584,34.4373487 L35.922897,34.396099 L35.9697558,34.3520368 C36.2227933,31.9614269 35.5630215,29.489255 33.9979378,27.5280173 C32.2950893,25.3933433 29.8706154,24.1342887 27.1715489,23.9833522 C26.9962971,23.9730398 26.8229195,23.9683523 26.6486048,23.9683523 C24.1707119,23.9683523 21.7781019,24.9527211 20.0180857,26.7142725 C19.5007646,27.2327067 19.0462343,27.8064531 18.6676153,28.4223867 C16.8438711,31.386743 14.221653,33.3939178 11.2845439,34.073601 C8.70824749,34.6689098 6.43465888,36.065776 4.71119249,38.1132631 C0.815352473,42.7407339 0.94468274,49.6163155 5.01108876,54.1069122 C7.2799915,56.6128339 10.3839179,58.0387624 13.7502536,58.1221993 C17.1278353,58.2065738 20.2870551,56.9381443 22.668419,54.5559718 C24.2625551,52.9603569 25.3796687,50.9634945 25.897927,48.7791333 C26.6317357,45.6863403 28.6044908,43.0229196 31.3101175,41.4732419 C32.5172,40.7813712 33.5452819,39.8354397 34.3671851,38.6616971 Z M37.5488971,36.1060882 C37.2274458,37.3857676 36.684821,38.6195099 35.9022792,39.7370028 C35.8591691,39.7988774 35.8085616,39.8523146 35.7645143,39.9132517 L48.3629693,52.5141097 C48.6431849,52.7953579 48.7172218,53.2228552 48.5457186,53.580978 C47.8756378,54.9862816 47.8850096,56.2856484 48.5710223,56.9718941 C49.2186108,57.618765 50.2242005,57.5334531 50.7630766,57.4256412 C51.8352058,57.2109551 52.939199,56.5790841 53.8716889,55.6462775 C55.6682551,53.8500388 56.275545,51.4209916 55.19873,50.3428734 C54.5295864,49.6753776 53.2672105,49.6500653 51.8989338,50.2753738 C51.5371839,50.4422478 51.1070202,50.3588108 50.8305533,50.0691251 L37.5488971,36.1060882 Z M35.7204671,26.71146 L45.5523789,16.875272 L43.1288422,14.4518498 L33.2913072,24.2936627 C34.0925926,24.8814715 34.8292128,25.5649047 35.4618065,26.3580247 C35.5527126,26.472399 35.6342469,26.5933357 35.7204671,26.71146 Z M48.7631434,17.436831 C50.3357245,15.8787158 54.5314607,11.6665549 57.7375393,8.44063773 L51.5634248,2.26442668 L42.5796571,11.2503075 L43.7914255,12.4634249 L47.5401289,16.2134012 L48.7631434,17.436831 Z M28.0263158,0 C32.1616283,0 35.5263158,3.3646875 35.5263158,7.5 C35.5263158,11.6353125 32.1616283,15 28.0263158,15 C23.8910033,15 20.5263158,11.63625 20.5263158,7.5 C20.5263158,3.3646875 23.8910033,0 28.0263158,0 Z M28.0263158,13.125 C28.8681908,13.125 29.6641283,12.9346875 30.3822533,12.6009375 C29.4560033,10.858125 28.9638158,8.9221875 28.9638158,6.931875 L28.9638158,6.5625 C28.9638158,6.0459375 28.5438158,5.625 28.0263158,5.625 C27.5088158,5.625 27.0888158,6.0459375 27.0888158,6.5625 L27.0888158,6.931875 C27.0888158,8.9221875 26.5966283,10.858125 25.6703783,12.6009375 C26.3885033,12.93375 27.1844408,13.125 28.0263158,13.125 Z M31.9385033,11.533125 C32.9931908,10.5103125 33.6513158,9.0815625 33.6513158,7.5 C33.6513158,4.3978125 31.1285033,1.875 28.0263158,1.875 C24.9250658,1.875 22.4013158,4.39875 22.4013158,7.5 C22.4013158,9.0815625 23.0594408,10.5103125 24.1141283,11.5321875 C24.8322533,10.1090625 25.2138158,8.5425 25.2138158,6.931875 L25.2138158,6.5625 C25.2138158,5.011875 26.4756908,3.75 28.0263158,3.75 C29.5769408,3.75 30.8388158,5.011875 30.8388158,6.5625 L30.8388158,6.9328125 C30.8388158,8.5425 31.2203783,10.11 31.9385033,11.533125 Z M45.2914557,10.618635 L47.1571847,8.75290601 L48.4766536,10.0723749 L46.6109246,11.9381039 L45.2914557,10.618635 Z M50.8888099,5.02017393 L52.2082788,6.33964283 L50.3425497,8.20537186 L49.0230808,6.88590296 L50.8888099,5.02017393 Z M51.8225628,9.68665362 L53.6882918,7.8209246 L55.0077607,9.1403935 L53.1420317,11.0061225 L51.8225628,9.68665362 Z M49.4106357,14.7377477 L48.0911668,13.4182788 L49.9568958,11.5525497 L51.2763647,12.8720186 L49.4106357,14.7377477 Z M58.4210526,24.4736842 L60,24.4736842 L60,26.0526316 L58.4210526,26.0526316 L58.4210526,24.4736842 Z M54.4736842,24.4736842 L56.0526316,24.4736842 L56.0526316,26.0526316 L54.4736842,26.0526316 L54.4736842,24.4736842 Z M50.5263158,24.4736842 L52.1052632,24.4736842 L52.1052632,26.0526316 L50.5263158,26.0526316 L50.5263158,24.4736842 Z M54.4736842,28.4210526 L56.0526316,28.4210526 L56.0526316,30 L54.4736842,30 L54.4736842,28.4210526 Z M50.5263158,28.4210526 L52.1052632,28.4210526 L52.1052632,30 L50.5263158,30 L50.5263158,28.4210526 Z M46.5789474,28.4210526 L48.1578947,28.4210526 L48.1578947,30 L46.5789474,30 L46.5789474,28.4210526 Z" id="Combined-Shape"></path>
                    </g>
                </g>
            </g>
        </g>
    </g>
</svg>