<?xml version="1.0" encoding="UTF-8"?>
<svg width="77px" height="77px" viewBox="0 0 77 77" version="1.1" xmlns="http://www.w3.org/2000/svg" xmlns:xlink="http://www.w3.org/1999/xlink">
    <!-- Generator: Sketch 53.2 (72643) - https://sketchapp.com -->
    <title>Icon/large/book Copy</title>
    <desc>Created with Sketch.</desc>
    <g id="Symbols" stroke="none" stroke-width="1" fill="none" fill-rule="evenodd">
        <g id="Card/proof-point/icon" transform="translate(-40.000000, -40.000000)" fill="#1A737E" fill-rule="nonzero">
            <g id="Icon/large/book" transform="translate(40.000000, 40.000000)">
                <path d="M43.4550909,36.8368808 C43.1270373,36.2043835 43.3841895,35.4317324 44.0299921,35.1109724 C44.3554311,34.9493142 52.0278551,31.1380899 56.0412437,29.8971562 C56.7381076,29.6840681 57.4703454,30.0600175 57.6882787,30.7350722 C57.9074425,31.4099765 57.5243289,32.1311977 56.8339245,32.3454889 C53.0240121,33.5222104 45.2989888,37.3591496 45.2216278,37.3976468 C45.0312245,37.4925365 44.8265178,37.5375 44.6270403,37.5375 C44.1493402,37.5375 43.6873276,37.2809522 43.4550909,36.8368808 Z M44.6270146,22.1375 C44.1493136,22.1375 43.6873,21.8808018 43.4550629,21.4368808 C43.1270087,20.8042332 43.3843151,20.0317324 44.0299652,19.7109724 C44.3554048,19.5493142 52.0278439,15.7380899 56.0412404,14.4971562 C56.7381057,14.2840681 57.4703448,14.6600175 57.6882786,15.3350722 C57.9074428,16.0099765 57.5243284,16.7311977 56.8339227,16.9454889 C53.0240029,18.1222104 45.2989644,21.9591496 45.2216033,21.9976468 C45.0311996,22.0925365 44.8264925,22.1375 44.6270146,22.1375 Z M75.7165689,19.2504208 C76.4262609,19.2504208 76.9998496,19.8253585 77,20.5338417 L77,70.5833467 C77,74.1215519 74.1213787,77 70.5832957,77 L6.41670426,77 C2.87847094,77 0,74.1214015 0,70.5833467 L0,20.5338417 C0,19.8255089 0.574942236,19.2505712 1.2832807,19.2505712 C1.99161916,19.2505712 2.56656139,19.8255089 2.56656139,20.5338417 L2.56656139,70.5833467 C2.56656139,72.705939 4.29394474,74.4333086 6.41655387,74.4333086 L37.2164937,74.4333086 L37.2164937,71.4162017 C35.65078,70.7605051 31.6416745,69.3000762 26.949797,69.3000762 C15.730979,69.3000762 6.85674637,71.7923249 6.76816647,71.816688 C6.65266669,71.8500744 6.53461028,71.8667676 6.41655387,71.8667676 C6.14058762,71.8667676 5.86853151,71.7781884 5.64264523,71.6074967 C5.32306578,71.364919 5.13312279,70.9850361 5.13312279,70.5833467 L5.13312279,14.1171884 C5.13312279,13.5448073 5.51300876,13.0404021 6.06358777,12.883847 C6.43836047,12.7761684 15.3536497,10.2672264 26.949797,10.2672264 C33.5935906,10.2672264 38.8525901,12.8596344 39.0733631,12.9686665 C39.5084424,13.1867308 39.7830551,13.6308299 39.7830551,14.1171884 L39.7830551,63.2208961 C43.6933541,60.9957384 52.8396429,56.0253774 61.5997293,52.9813508 L61.5997293,3.16028697 C52.163488,6.95505608 43.1248787,12.5785571 43.0299824,12.6388631 C42.4281203,13.014836 41.6363152,12.8313612 41.2615425,12.230707 C40.8855666,11.6300528 41.0690428,10.838254 41.6697018,10.4622812 C41.7737719,10.398065 52.163488,3.93268558 62.4313878,0.0815205489 C62.8279671,-0.0661615841 63.2693628,-0.0109687707 63.6133054,0.229052293 C63.9598048,0.468922967 64.1664411,0.862942508 64.1664411,1.2838817 L64.1664411,53.9000781 C64.1664411,54.4532093 63.813475,54.9421244 63.2886127,55.1179293 C52.0030215,58.879312 39.2878198,66.4741139 39.1607399,66.5497596 C38.7641606,66.7884272 38.2687749,66.7948939 37.8670823,66.5664528 C37.4653897,66.3393652 37.2164937,65.9119593 37.2164937,65.4499638 L37.2164937,14.9486899 C35.6417566,14.2902863 31.6288913,12.8337675 26.949797,12.8337675 C17.8317816,12.8337675 10.2626362,14.4802277 7.69983457,15.1103582 L7.69983457,68.9316228 C10.828555,68.1911067 18.1101541,66.7332344 26.949797,66.7332344 C32.4733331,66.7332344 37.0393339,68.5248202 38.5498544,69.1920968 C40.2491147,68.5696361 45.7416704,66.7332344 51.3331829,66.7332344 C59.9341564,66.7332344 66.3917668,68.1153105 69.2998646,68.8776331 L69.2998646,15.1604378 C68.8763655,15.0756183 68.32714,14.9691428 67.6712878,14.8485307 C66.974379,14.7202488 66.5137334,14.0516187 66.6420163,13.3535123 C66.7704497,12.6579626 67.4414913,12.1959671 68.1358435,12.3242491 C69.8555569,12.6400663 70.8616682,12.8645972 70.8616682,12.8645972 C71.449544,12.9942327 71.8665764,13.515331 71.8665764,14.1171884 L71.8665764,70.5830459 C71.8665764,70.9951121 71.6689635,71.3826649 71.3340443,71.6238891 C70.9965684,71.8652637 70.5652489,71.9293294 70.1790465,71.8010475 C70.1034002,71.7754814 62.5124482,69.2999258 51.3333333,69.2999258 C46.5285126,69.2999258 41.6545124,70.825774 39.7833559,71.4802675 L39.7833559,74.4331582 L70.5832957,74.4331582 C72.7059049,74.4331582 74.4332882,72.7057886 74.4332882,70.5831963 L74.4332882,20.5336913 C74.4332882,19.8253585 75.0068769,19.2504208 75.7165689,19.2504208 Z M43.4550909,29.1368808 C43.1270373,28.5043835 43.3841895,27.7317324 44.0299921,27.4109724 C44.3554311,27.2493142 52.0278551,23.4380899 56.0412437,22.1971562 C56.7381076,21.9840681 57.4703454,22.3600175 57.6882787,23.0350722 C57.9074425,23.7099765 57.5243289,24.4311977 56.8339245,24.6454889 C53.0240121,25.8222104 45.2989888,29.6591496 45.2216278,29.6976468 C45.0312245,29.7925365 44.8265178,29.8375 44.6270403,29.8375 C44.1493402,29.8375 43.6873276,29.5809522 43.4550909,29.1368808 Z M43.4550909,44.5368808 C43.1270373,43.9043835 43.3841895,43.1317324 44.0299921,42.8109724 C44.3554311,42.6493142 52.0278551,38.8380899 56.0412437,37.5971562 C56.7381076,37.3840681 57.4703454,37.7600175 57.6882787,38.4350722 C57.9074425,39.1099765 57.5243289,39.8311977 56.8339245,40.0454889 C53.0240121,41.2222104 45.2989888,45.0591496 45.2216278,45.0976468 C45.0312245,45.1925365 44.8265178,45.2375 44.6270403,45.2375 C44.1493402,45.2375 43.6873276,44.9809522 43.4550909,44.5368808 Z M30.7709766,23.8111955 C31.461376,23.9731215 31.889962,24.6646587 31.7284527,25.3548402 C31.5667931,26.0463774 30.8724838,26.4744646 30.1859944,26.3137436 C22.8842429,24.5977795 14.2146255,26.8819157 14.1286075,26.9063176 C14.0168744,26.9358409 13.9052917,26.95 13.794912,26.95 C13.2288777,26.95 12.7105143,26.5720722 12.5565241,25.9975736 C12.3730592,25.3111578 12.77984,24.6068172 13.4637729,24.42305 C13.842282,24.3215261 22.8469484,21.9486695 30.7709766,23.8111955 Z M30.7709766,31.5107141 C31.461376,31.672665 31.889962,32.3643082 31.7284527,33.0545956 C31.5667931,33.7462388 30.8724838,34.1743917 30.1859944,34.013646 C22.8842429,32.2974187 14.2146255,34.5819053 14.1286075,34.6063109 C14.0168744,34.6358387 13.9052917,34.65 13.794912,34.65 C13.2288777,34.65 12.7105143,34.2720142 12.5565241,33.6974275 C12.3730592,33.0110571 12.77984,32.3064578 13.4637729,32.1226624 C13.842282,32.021123 22.8469484,29.6492582 30.7709766,31.5107141 Z M43.4550909,52.2368796 C43.1270373,51.6043813 43.3841895,50.8317288 44.0299921,50.5109683 C44.3554311,50.3493098 52.0278551,46.5380789 56.0412437,45.2971432 C56.7381076,45.0840547 57.4703454,45.4601551 57.6882787,46.1350605 C57.9074425,46.809966 57.5243289,47.5311885 56.8339245,47.74548 C53.0240121,48.9222035 45.2989888,52.7591493 45.2216278,52.7976466 C45.0312245,52.8925364 44.8265178,52.9375 44.6270403,52.9375 C44.1493402,52.9375 43.6873276,52.6809517 43.4550909,52.2368796 Z M30.7709766,39.2106512 C31.461376,39.3725354 31.889962,40.0638939 31.7284527,40.7538971 C31.5667931,41.4452556 30.8724838,41.8732322 30.1859944,41.7125527 C22.8842429,39.997032 14.2146255,42.280578 14.1286075,42.3049736 C14.0168744,42.3346398 13.9052917,42.35 13.794912,42.35 C13.2288777,42.35 12.7105143,41.9708145 12.5565241,41.3964644 C12.3730592,40.7103766 12.77984,40.0060674 13.4637729,39.8223476 C13.842282,39.7194947 22.8469484,37.3499618 30.7709766,39.2106512 Z M30.7709766,54.6109452 C31.461376,54.7728142 31.889962,55.464108 31.7284527,56.1540465 C31.5667931,56.8453403 30.8724838,57.2719217 30.1859944,57.1126124 C22.8842429,55.3972523 14.2146255,57.6805845 14.1286075,57.7049778 C14.0168744,57.7346413 13.9052917,57.75 13.794912,57.75 C13.2288777,57.75 12.7105143,57.37085 12.5565241,56.7965537 C12.3730592,56.1105301 12.77984,55.4062868 13.4637729,55.2225843 C13.842282,55.1210962 22.8469484,52.7490747 30.7709766,54.6109452 Z M30.7709766,46.9111325 C31.461376,47.0729919 31.889962,47.7642444 31.7284527,48.4541418 C31.5667931,49.1453943 30.8724838,49.5733053 30.1859944,49.4126504 C22.8842429,47.6973927 14.2146255,49.9805887 14.1286075,50.0049805 C14.0168744,50.0346422 13.9052917,50.05 13.794912,50.05 C13.2288777,50.05 12.7105143,49.6708726 12.5565241,49.0966106 C12.3730592,48.4106279 12.77984,47.7064267 13.4637729,47.5227351 C13.842282,47.4198979 22.8469484,45.0493732 30.7709766,46.9111325 Z" id="Combined-Shape"></path>
            </g>
        </g>
    </g>
</svg>