<?xml version="1.0" encoding="UTF-8"?>
<svg width="26px" height="26px" viewBox="0 0 26 26" version="1.1" xmlns="http://www.w3.org/2000/svg" xmlns:xlink="http://www.w3.org/1999/xlink">
    <!-- Generator: Sketch 53.2 (72643) - https://sketchapp.com -->
    <title>Shape</title>
    <desc>Created with Sketch.</desc>
    <g id="Symbols" stroke="none" stroke-width="1" fill="none" fill-rule="evenodd">
        <g id="Component/Large/Centers-open" transform="translate(-1274.000000, -420.000000)" fill="#EBAA00" fill-rule="nonzero">
            <g id="Group-10" transform="translate(140.000000, 410.000000)">
                <g id="content">
                    <g id="close-circular-button" transform="translate(1134.000000, 10.000000)">
                        <g id="close">
                            <path d="M13,0 C5.8206087,0 0,5.8206087 0,13 C0,20.1793913 5.8206087,26 13,26 C20.1793913,26 26,20.1793913 26,13 C26,5.8206087 20.1793913,0 13,0 Z M13,23.7391304 C7.06917391,23.7391304 2.26086957,18.9308261 2.26086957,13 C2.26086957,7.06917391 7.06917391,2.26086957 13,2.26086957 C18.9308261,2.26086957 23.7391304,7.06917391 23.7391304,13 C23.7391304,18.9308261 18.9308261,23.7391304 13,23.7391304 Z M17.128913,9.27126087 L16.7293043,8.87165217 C16.398087,8.541 15.8605652,8.541 15.5293478,8.87165217 L13,11.401 L10.4706522,8.87165217 C10.1394348,8.541 9.60247826,8.541 9.27182609,8.87165217 L8.87165217,9.27126087 C8.541,9.60247826 8.541,10.1394348 8.87165217,10.4706522 L11.401,13 L8.87165217,15.5293478 C8.541,15.8605652 8.541,16.3975217 8.87165217,16.7281739 L9.27182609,17.128913 C9.60247826,17.459 10.1394348,17.459 10.4706522,17.128913 L13,14.599 L15.5293478,17.128913 C15.8605652,17.459 16.398087,17.459 16.7293043,17.128913 L17.128913,16.7281739 C17.459,16.3975217 17.459,15.8605652 17.128913,15.5293478 L14.599,13 L17.128913,10.4706522 C17.459,10.1394348 17.459,9.60247826 17.128913,9.27126087 Z" id="Shape"></path>
                        </g>
                    </g>
                </g>
            </g>
        </g>
    </g>
</svg>