<?xml version="1.0" encoding="UTF-8"?>
<svg width="60px" height="60px" viewBox="0 0 60 60" version="1.1" xmlns="http://www.w3.org/2000/svg" xmlns:xlink="http://www.w3.org/1999/xlink">
    <!-- Generator: Sketch 53.2 (72643) - https://sketchapp.com -->
    <title>Icon/large/head</title>
    <desc>Created with Sketch.</desc>
    <g id="Symbols" stroke="none" stroke-width="1" fill="none" fill-rule="evenodd">
        <g id="Component/Large/Story" transform="translate(-540.000000, -395.000000)" fill="#EBAA00">
            <g id="Content" transform="translate(540.000000, 285.000000)">
                <g id="Icon/large/head" transform="translate(0.000000, 110.000000)">
                    <g id="head">
                        <path d="M32.0109677,11.6129032 C42.6416129,11.6129032 51.2903226,20.2616129 51.2903226,30.8922581 C51.2903226,35.5674194 49.4690323,39.9629032 46.1632258,43.2687097 C43.8522581,45.5796774 42.5806452,48.6512903 42.5806452,51.9183871 L42.5806452,59.0322581 C42.5806452,59.5664516 42.1480645,60 41.6129032,60 L25.1612903,60 C24.626129,60 24.1935484,59.5664516 24.1935484,59.0322581 L24.1935484,51.2729032 L22.5454839,52.1593548 C21.2516129,52.8570968 19.7903226,53.2258065 18.3183871,53.2258065 C15.153871,53.2258065 12.5806452,50.6516129 12.5806452,47.4880645 C12.5806452,43.3345161 10.9625806,39.4287097 8.02548387,36.4906452 C7.84354839,36.3096774 7.74193548,36.0629032 7.74193548,35.8064516 C7.74193548,35.5490323 7.84354839,35.3032258 8.02548387,35.1232258 L8.9516129,34.1970968 C10.7651613,32.3835484 12.1132258,30.1258065 12.8496774,27.6687097 L13.5454839,25.3519355 C16.0103226,17.1348387 23.4309677,11.6129032 32.0109677,11.6129032 Z M36.7741935,58.0645161 L36.7741935,39.6774194 L35.6206452,39.6774194 L34.7235484,37.2880645 L32.4,38.343871 L29.3980645,35.3419355 L30.4548387,33.0183871 L28.0645161,32.1222581 L28.0645161,27.8777419 L30.4548387,26.9816129 L29.3980645,24.6580645 L32.4,21.656129 L34.7235484,22.7119355 L35.6206452,20.3225806 L36.7741935,20.3225806 L36.7741935,14.2296774 C35.2587097,13.7951613 33.663871,13.5483871 32.0109677,13.5483871 C24.2932258,13.5483871 17.6167742,18.5148387 15.4006452,25.9074194 L14.7048387,28.2241935 C13.8764516,30.986129 12.36,33.5245161 10.3209677,35.5645161 L10.0606452,35.8248387 C12.9406452,39.0358065 14.516129,43.1409677 14.516129,47.4880645 C14.516129,49.5851613 16.2222581,51.2903226 18.3183871,51.2903226 C19.47,51.2903226 20.6148387,51.0019355 21.6270968,50.456129 L32.4445161,44.6322581 L33.3619355,46.3364516 L26.1290323,50.2306452 L26.1290323,58.0645161 L36.7741935,58.0645161 Z M36.9609677,37.7419355 L38.523871,37.7419355 L39.3270968,35.5983871 L39.7422581,35.4445161 C39.8883871,35.3903226 40.0345161,35.3312903 40.1758065,35.2654839 L40.5783871,35.0796774 L42.663871,36.0270968 L43.7680645,34.9229032 L42.8206452,32.8374194 L43.0074194,32.433871 C43.0741935,32.2925806 43.1312903,32.1483871 43.1854839,32.0012903 L43.3393548,31.5851613 L45.483871,30.7809677 L45.483871,29.2190323 L43.3393548,28.4148387 L43.1854839,27.9987097 C43.1312903,27.8516129 43.0732258,27.7074194 43.0074194,27.566129 L42.8206452,27.1625806 L43.7680645,25.0770968 L42.663871,23.9729032 L40.5783871,24.9203226 L40.1758065,24.7345161 C40.0345161,24.6687097 39.8883871,24.6096774 39.7422581,24.5554839 L39.3270968,24.4016129 L38.5229032,22.2580645 L36.96,22.2580645 L36.1567742,24.4016129 L35.7416129,24.5554839 C35.5954839,24.6096774 35.4493548,24.6687097 35.3080645,24.7345161 L34.9054839,24.9203226 L32.82,23.9729032 L31.7158065,25.0770968 L32.6632258,27.1625806 L32.4764516,27.566129 C32.4096774,27.7074194 32.3525806,27.8516129 32.2983871,27.9987097 L32.1445161,28.4148387 L30,29.2190323 L30,30.7809677 L32.1445161,31.5851613 L32.2983871,32.0012903 C32.3525806,32.1483871 32.4106452,32.2925806 32.4764516,32.433871 L32.6632258,32.8374194 L31.7158065,34.9229032 L32.82,36.0270968 L34.9054839,35.0796774 L35.3080645,35.2654839 C35.4493548,35.3312903 35.5954839,35.3903226 35.7416129,35.4445161 L36.1567742,35.5983871 L36.9609677,37.7419355 Z M44.7948387,41.9012903 C47.7348387,38.9603226 49.3548387,35.0506452 49.3548387,30.8922581 C49.3548387,23.7019355 44.9564516,17.5219355 38.7096774,14.8964516 L38.7096774,20.3225806 L39.8632258,20.3225806 L40.7603226,22.7119355 L43.083871,21.656129 L46.0858065,24.6580645 L45.0290323,26.9816129 L47.4193548,27.8777419 L47.4193548,32.1222581 L45.0290323,33.0183871 L46.0858065,35.3419355 L43.083871,38.343871 L40.7603226,37.2880645 L39.8632258,39.6774194 L38.7096774,39.6774194 L38.7096774,58.0645161 L40.6451613,58.0645161 L40.6451613,51.9183871 C40.6451613,48.1335484 42.1180645,44.576129 44.7948387,41.9012903 Z M49.5832258,-2.04281037e-14 L59.2606452,4.83870968 L49.5832258,9.67741935 L4.83870968,9.67741935 C2.17064516,9.67741935 1.3500312e-13,7.50677419 1.3500312e-13,4.83870968 C1.3500312e-13,2.17064516 2.17064516,-2.04281037e-14 4.83870968,-2.04281037e-14 L49.5832258,-2.04281037e-14 Z M8.70967742,7.74193548 L8.70967742,1.93548387 L4.83870968,1.93548387 C3.23806452,1.93548387 1.93548387,3.23806452 1.93548387,4.83870968 C1.93548387,6.43935484 3.23806452,7.74193548 4.83870968,7.74193548 L8.70967742,7.74193548 Z M48.3870968,3.87096774 L48.3870968,1.93548387 L10.6451613,1.93548387 L10.6451613,3.87096774 L12.5806452,3.87096774 L12.5806452,5.80645161 L10.6451613,5.80645161 L10.6451613,7.74193548 L48.3870968,7.74193548 L48.3870968,5.80645161 L14.516129,5.80645161 L14.516129,3.87096774 L48.3870968,3.87096774 Z M50.3225806,2.53354839 L50.3225806,7.14387097 L54.9329032,4.83870968 L50.3225806,2.53354839 Z M37.7419355,26.1290323 C39.8767742,26.1290323 41.6129032,27.8651613 41.6129032,30 C41.6129032,32.1348387 39.8767742,33.8709677 37.7419355,33.8709677 C35.6070968,33.8709677 33.8709677,32.1348387 33.8709677,30 C33.8709677,27.8651613 35.6070968,26.1290323 37.7419355,26.1290323 Z M37.7419355,31.9354839 C38.8093548,31.9354839 39.6774194,31.0674194 39.6774194,30 C39.6774194,28.9325806 38.8093548,28.0645161 37.7419355,28.0645161 C36.6745161,28.0645161 35.8064516,28.9325806 35.8064516,30 C35.8064516,31.0674194 36.6745161,31.9354839 37.7419355,31.9354839 Z M57.0967742,54.1935484 C58.6974194,54.1935484 60,55.496129 60,57.0967742 C60,58.6974194 58.6974194,60 57.0967742,60 C55.496129,60 54.1935484,58.6974194 54.1935484,57.0967742 C54.1935484,55.496129 55.496129,54.1935484 57.0967742,54.1935484 Z M57.0967742,58.0645161 C57.6309677,58.0645161 58.0645161,57.63 58.0645161,57.0967742 C58.0645161,56.5635484 57.6309677,56.1290323 57.0967742,56.1290323 C56.5625806,56.1290323 56.1290323,56.5635484 56.1290323,57.0967742 C56.1290323,57.63 56.5625806,58.0645161 57.0967742,58.0645161 Z M2.90322581,36.7741935 C4.50387097,36.7741935 5.80645161,38.0767742 5.80645161,39.6774194 C5.80645161,41.2780645 4.50387097,42.5806452 2.90322581,42.5806452 C1.30258065,42.5806452 -2.05169215e-13,41.2780645 -2.05169215e-13,39.6774194 C-2.05169215e-13,38.0767742 1.30258065,36.7741935 2.90322581,36.7741935 Z M2.90322581,40.6451613 C3.43741935,40.6451613 3.87096774,40.2106452 3.87096774,39.6774194 C3.87096774,39.1441935 3.43741935,38.7096774 2.90322581,38.7096774 C2.36903226,38.7096774 1.93548387,39.1441935 1.93548387,39.6774194 C1.93548387,40.2106452 2.36903226,40.6451613 2.90322581,40.6451613 Z M1.93548387,46.4516129 L3.87096774,46.4516129 L3.87096774,48.3870968 L1.93548387,48.3870968 L1.93548387,46.4516129 Z M1.93548387,52.2580645 L3.87096774,52.2580645 L3.87096774,54.1935484 L1.93548387,54.1935484 L1.93548387,52.2580645 Z M1.93548387,58.0645161 L3.87096774,58.0645161 L3.87096774,60 L1.93548387,60 L1.93548387,58.0645161 Z M56.1290323,36.7741935 L58.0645161,36.7741935 L58.0645161,38.7096774 L56.1290323,38.7096774 L56.1290323,36.7741935 Z M56.1290323,42.5806452 L58.0645161,42.5806452 L58.0645161,44.516129 L56.1290323,44.516129 L56.1290323,42.5806452 Z M56.1290323,48.3870968 L58.0645161,48.3870968 L58.0645161,50.3225806 L56.1290323,50.3225806 L56.1290323,48.3870968 Z" id="Combined-Shape"></path>
                    </g>
                </g>
            </g>
        </g>
    </g>
</svg>