<?xml version="1.0" encoding="UTF-8"?>
<svg width="60px" height="60px" viewBox="0 0 60 60" version="1.1" xmlns="http://www.w3.org/2000/svg" xmlns:xlink="http://www.w3.org/1999/xlink">
    <!-- Generator: Sketch 53.2 (72643) - https://sketchapp.com -->
    <title>Icon/large/book</title>
    <desc>Created with Sketch.</desc>
    <g id="Symbols" stroke="none" stroke-width="1" fill="none" fill-rule="evenodd">
        <g id="Component/Large/Story" transform="translate(-540.000000, -285.000000)" fill="#EBAA00">
            <g id="Content" transform="translate(540.000000, 285.000000)">
                <g id="Icon/large/book">
                    <path d="M33.8611098,28.7040629 C33.6054836,28.211208 33.8058619,27.6091421 34.3090847,27.3591993 C34.5626736,27.2332318 40.5411858,24.2634467 43.6685016,23.2964854 C44.2115124,23.1304427 44.7820873,23.4233902 44.9519055,23.9494069 C45.1226825,24.4753063 44.8241524,25.0372969 44.2861749,25.204277 C41.3174121,26.1212029 35.2979134,29.1110257 35.2376321,29.1410235 C35.0892658,29.2149635 34.9297542,29.25 34.7743172,29.25 C34.4020833,29.25 34.0420734,29.0500926 33.8611098,28.7040629 Z M34.7742971,17.25 C34.4020625,17.25 34.042052,17.0499754 33.861088,16.7040629 C33.6054613,16.2110908 33.8059598,15.6091421 34.3090638,15.3591993 C34.5626531,15.2332318 40.5411771,12.2634467 43.668499,11.2964854 C44.2115109,11.1304427 44.7820869,11.4233902 44.9519054,11.9494069 C45.1226827,12.4753063 44.824152,13.0372969 44.2861735,13.204277 C41.3174048,14.1212029 35.2978943,17.1110257 35.237613,17.1410235 C35.0892464,17.2149635 34.9297344,17.25 34.7742971,17.25 Z M58.9999238,15.0003279 C59.5529306,15.0003279 59.9998828,15.4483313 60,16.0003961 L60,55.0000104 C60,57.7570534 57.7569184,60 54.9999707,60 L5.0000293,60 C2.24296437,60 0,57.7569362 0,55.0000104 L0,16.0003961 C0,15.4484485 0.448006937,15.0004451 0.999958984,15.0004451 C1.55191103,15.0004451 1.99991797,15.4484485 1.99991797,16.0003961 L1.99991797,55.0000104 C1.99991797,56.6539784 3.34593096,57.9999807 4.99991211,57.9999807 L28.9998652,57.9999807 L28.9998652,55.6489883 C27.7798286,55.1380559 24.6558503,54.0000593 20.9998418,54.0000593 C12.2579057,54.0000593 5.34291925,55.9420714 5.27389595,55.9610556 C5.18389613,55.9870709 5.09190412,56.0000786 4.99991211,56.0000786 C4.78487347,56.0000786 4.57288169,55.9310559 4.39686641,55.7980494 C4.14784346,55.6090278 3.99983594,55.3130151 3.99983594,55.0000104 L3.99983594,11.0004065 C3.99983594,10.5543953 4.29585098,10.1613523 4.72487358,10.0393613 C5.01690426,9.95545592 11.9638829,8.00043619 20.9998418,8.00043619 C26.1768239,8.00043619 30.2747456,10.0204943 30.4467765,10.1054544 C30.7857992,10.2753746 30.9997832,10.6214259 30.9997832,11.0004065 L30.9997832,49.2630359 C34.0467694,47.5291468 41.1737477,43.6561382 47.9997891,41.2841695 L47.9997891,2.46256128 C40.6468737,5.41952422 33.6038016,9.80147306 33.5298564,9.84846479 C33.0608729,10.1414306 32.4438819,9.9984633 32.1518513,9.53042106 C31.8588831,9.06237881 32.0018516,8.44539273 32.4698975,8.15242688 C32.5509911,8.10238831 40.6468737,3.06443032 48.6478347,0.0635225056 C48.9568575,-0.0515544812 49.3008021,-0.00854709403 49.5688094,0.178482306 C49.8388089,0.36539452 49.9998242,0.672422733 49.9998242,1.0004273 L49.9998242,42.0000608 C49.9998242,42.4310722 49.7247857,42.812045 49.3158021,42.9490358 C40.5218349,45.8799834 30.6138855,51.7980108 30.5148623,51.8569555 C30.2058394,52.0429303 29.8198246,52.0479693 29.5068174,51.8699632 C29.1938102,51.6930119 28.9998652,51.3599683 28.9998652,50.9999718 L28.9998652,11.6483298 C27.7727973,11.135288 24.6458894,10.0003383 20.9998418,10.0003383 C13.8948947,10.0003383 7.99685938,11.2832943 5.99987109,11.7743051 L5.99987109,53.7129528 C8.43783508,53.1359273 14.1118084,51.9999229 20.9998418,51.9999229 C25.3038959,51.9999229 28.8618186,53.3959638 30.0388476,53.9159196 C31.3629466,53.4308853 35.6428601,51.9999229 39.9998828,51.9999229 C46.70194,51.9999229 51.7338443,53.0768654 53.9998945,53.6708829 L53.9998945,11.8133282 C53.6698952,11.7472351 53.2419273,11.6642671 52.7308736,11.5702837 C52.1878278,11.4703237 51.8288831,10.9493133 51.9288439,10.4053343 C52.0289218,9.86334745 52.5518114,9.50335101 53.0928651,9.60331096 C54.4329015,9.84940228 55.2168843,10.0243615 55.2168843,10.0243615 C55.6749694,10.1253761 55.9999297,10.5314268 55.9999297,11.0004065 L55.9999297,54.999776 C55.9999297,55.3208666 55.8459456,55.6228558 55.5849696,55.8108227 C55.3220013,55.9989068 54.9859082,56.0488281 54.6849713,55.9488682 C54.6260261,55.9289465 48.7109986,53.9999422 40,53.9999422 C36.2559839,53.9999422 32.4580616,55.1889148 31.0000176,55.6989097 L31.0000176,57.9998635 L54.9999707,57.9998635 C56.6539518,57.9998635 57.9999648,56.6538612 57.9999648,54.9998932 L57.9999648,16.0002789 C57.9999648,15.4483313 58.4469171,15.0003279 58.9999238,15.0003279 Z M33.8611098,22.7040629 C33.6054836,22.211208 33.8058619,21.6091421 34.3090847,21.3591993 C34.5626736,21.2332318 40.5411858,18.2634467 43.6685016,17.2964854 C44.2115124,17.1304427 44.7820873,17.4233902 44.9519055,17.9494069 C45.1226825,18.4753063 44.8241524,19.0372969 44.2861749,19.204277 C41.3174121,20.1212029 35.2979134,23.1110257 35.2376321,23.1410235 C35.0892658,23.2149635 34.9297542,23.25 34.7743172,23.25 C34.4020833,23.25 34.0420734,23.0500926 33.8611098,22.7040629 Z M33.8611098,34.7040629 C33.6054836,34.211208 33.8058619,33.6091421 34.3090847,33.3591993 C34.5626736,33.2332318 40.5411858,30.2634467 43.6685016,29.2964854 C44.2115124,29.1304427 44.7820873,29.4233902 44.9519055,29.9494069 C45.1226825,30.4753063 44.8241524,31.0372969 44.2861749,31.204277 C41.3174121,32.1212029 35.2979134,35.1110257 35.2376321,35.1410235 C35.0892658,35.2149635 34.9297542,35.25 34.7743172,35.25 C34.4020833,35.25 34.0420734,35.0500926 33.8611098,34.7040629 Z M23.9773844,18.5541783 C24.5153579,18.6803544 24.849321,19.2192146 24.7234697,19.7570183 C24.5975011,20.2958785 24.0564809,20.629453 23.5215541,20.5042158 C17.8318776,19.1671009 11.0763315,20.9469473 11.0093046,20.9659618 C10.9222398,20.9889669 10.8352922,21 10.7492821,21 C10.3082164,21 9.90429685,20.7055108 9.7843045,20.2578496 C9.64134486,19.7229801 9.95831685,19.1741433 10.4912516,19.030948 C10.7861938,18.9518385 17.8028169,17.1028593 23.9773844,18.5541783 Z M23.9773844,24.5538032 C24.5153579,24.6799987 24.849321,25.2189414 24.7234697,25.7568277 C24.5975011,26.2957705 24.0564809,26.6293961 23.5215541,26.5041398 C17.8318776,25.1668198 11.0763315,26.9469392 11.0093046,26.9659566 C10.9222398,26.9889652 10.8352922,27 10.7492821,27 C10.3082164,27 9.90429685,26.7054656 9.7843045,26.2577357 C9.64134486,25.7229017 9.95831685,25.1738632 10.4912516,25.030646 C10.7861938,24.9515244 17.8028169,23.1033181 23.9773844,24.5538032 Z M33.8611098,40.704062 C33.6054836,40.2112062 33.8058619,39.6091393 34.3090847,39.359196 C34.5626736,39.2332284 40.5411858,36.2634381 43.6685016,35.2964752 C44.2115124,35.1304322 44.7820873,35.4234975 44.9519055,35.9493978 C45.1226825,36.4752982 44.8241524,37.0372897 44.2861749,37.2042701 C41.3174121,38.1211976 35.2979134,41.1110254 35.2376321,41.1410233 C35.0892658,41.2149634 34.9297542,41.25 34.7743172,41.25 C34.4020833,41.25 34.0420734,41.0500922 33.8611098,40.704062 Z M23.9773844,30.5537542 C24.5153579,30.6798977 24.849321,31.2186186 24.7234697,31.7562834 C24.5975011,32.2950043 24.0564809,32.6284926 23.5215541,32.5032878 C17.8318776,31.1665184 11.0763315,32.945905 11.0093046,32.9649145 C10.9222398,32.988031 10.8352922,33 10.7492821,33 C10.3082164,33 9.90429685,32.7045308 9.7843045,32.2569853 C9.64134486,31.7223714 9.95831685,31.173559 10.4912516,31.0304008 C10.7861938,30.9502556 17.8028169,29.1038663 23.9773844,30.5537542 Z M23.9773844,42.5539832 C24.5153579,42.680115 24.849321,43.2187854 24.7234697,43.7563999 C24.5975011,44.2950703 24.0564809,44.6274714 23.5215541,44.5033343 C17.8318776,43.1666901 11.0763315,44.94591 11.0093046,44.9649178 C10.9222398,44.9880322 10.8352922,45 10.7492821,45 C10.3082164,45 9.90429685,44.7045584 9.7843045,44.2570548 C9.64134486,43.722491 9.95831685,43.17373 10.4912516,43.0305852 C10.7861938,42.9515035 17.8028169,41.1031751 23.9773844,42.5539832 Z M23.9773844,36.5541292 C24.5153579,36.6802534 24.849321,37.2188917 24.7234697,37.7564741 C24.5975011,38.2951124 24.0564809,38.6285496 23.5215541,38.503364 C17.8318776,37.1667995 11.0763315,38.9459133 11.0093046,38.9649199 C10.9222398,38.9880329 10.8352922,39 10.7492821,39 C10.3082164,39 9.90429685,38.7045761 9.7843045,38.2570992 C9.64134486,37.7225672 9.95831685,37.173839 10.4912516,37.0307027 C10.7861938,36.9505698 17.8028169,35.1034077 23.9773844,36.5541292 Z" id="Combined-Shape"></path>
                </g>
            </g>
        </g>
    </g>
</svg>